<svg width="86" height="86" viewBox="0 0 86 86" fill="none" xmlns="http://www.w3.org/2000/svg"><rect x="86" width="86" height="86" rx="14" transform="rotate(90 86 0)" fill="url(#paint0_linear_1812_30)"/><path d="M26.864 33.4C28.656 33.4 29.9907 33.82 30.868 34.66C31.7453 35.5 32.184 36.7413 32.184 38.384C32.184 39.2613 31.9693 40.036 31.54 40.708C31.1107 41.3613 30.476 41.8747 29.636 42.248C28.796 42.6027 27.76 42.78 26.528 42.78L26.64 41.52C27.2187 41.52 27.8813 41.604 28.628 41.772C29.3747 41.9213 30.0933 42.2013 30.784 42.612C31.4933 43.004 32.072 43.564 32.52 44.292C32.9867 45.0013 33.22 45.916 33.22 47.036C33.22 48.268 33.0147 49.276 32.604 50.06C32.212 50.844 31.6893 51.4507 31.036 51.88C30.3827 52.3093 29.6827 52.608 28.936 52.776C28.1893 52.9253 27.4707 53 26.78 53H19.808C19.3227 53 18.912 52.8413 18.576 52.524C18.2587 52.188 18.1 51.7773 18.1 51.292V35.108C18.1 34.6227 18.2587 34.2213 18.576 33.904C18.912 33.568 19.3227 33.4 19.808 33.4H26.864ZM26.36 36.704H21.376L21.74 36.256V41.324L21.404 41.072H26.444C26.9853 41.072 27.4707 40.8947 27.9 40.54C28.3293 40.1853 28.544 39.672 28.544 39C28.544 38.1973 28.3387 37.6187 27.928 37.264C27.536 36.8907 27.0133 36.704 26.36 36.704ZM26.584 44.376H21.488L21.74 44.152V50.06L21.46 49.78H26.78C27.6387 49.78 28.32 49.556 28.824 49.108C29.328 48.6413 29.58 47.9507 29.58 47.036C29.58 46.196 29.412 45.5893 29.076 45.216C28.74 44.8427 28.3387 44.6093 27.872 44.516C27.4053 44.4227 26.976 44.376 26.584 44.376ZM48.4317 37.74C48.917 37.74 49.3183 37.8987 49.6357 38.216C49.953 38.5333 50.1117 38.944 50.1117 39.448V51.292C50.1117 51.7773 49.953 52.188 49.6357 52.524C49.3183 52.8413 48.917 53 48.4317 53C47.9463 53 47.545 52.8413 47.2277 52.524C46.9103 52.188 46.7517 51.7773 46.7517 51.292V49.92L47.3677 50.172C47.3677 50.4147 47.237 50.7133 46.9757 51.068C46.7143 51.404 46.3597 51.74 45.9117 52.076C45.4637 52.412 44.9317 52.7013 44.3157 52.944C43.7183 53.168 43.065 53.28 42.3557 53.28C41.0677 53.28 39.901 52.9533 38.8557 52.3C37.8103 51.628 36.9797 50.7133 36.3637 49.556C35.7663 48.38 35.4677 47.036 35.4677 45.524C35.4677 43.9933 35.7663 42.6493 36.3637 41.492C36.9797 40.316 37.801 39.4013 38.8277 38.748C39.8543 38.076 40.993 37.74 42.2437 37.74C43.0463 37.74 43.7837 37.8613 44.4557 38.104C45.1277 38.3467 45.7063 38.6547 46.1917 39.028C46.6957 39.4013 47.0783 39.784 47.3397 40.176C47.6197 40.5493 47.7597 40.8667 47.7597 41.128L46.7517 41.492V39.448C46.7517 38.9627 46.9103 38.5613 47.2277 38.244C47.545 37.908 47.9463 37.74 48.4317 37.74ZM42.7757 50.2C43.597 50.2 44.3157 49.9947 44.9317 49.584C45.5477 49.1733 46.0237 48.6133 46.3597 47.904C46.7143 47.1947 46.8917 46.4013 46.8917 45.524C46.8917 44.628 46.7143 43.8253 46.3597 43.116C46.0237 42.4067 45.5477 41.8467 44.9317 41.436C44.3157 41.0253 43.597 40.82 42.7757 40.82C41.973 40.82 41.2637 41.0253 40.6477 41.436C40.0317 41.8467 39.5463 42.4067 39.1917 43.116C38.8557 43.8253 38.6877 44.628 38.6877 45.524C38.6877 46.4013 38.8557 47.1947 39.1917 47.904C39.5463 48.6133 40.0317 49.1733 40.6477 49.584C41.2637 49.9947 41.973 50.2 42.7757 50.2ZM60.3297 53.28C59.023 53.28 57.847 53.1213 56.8017 52.804C55.7564 52.468 54.7577 51.8893 53.8057 51.068C53.563 50.8627 53.3764 50.6293 53.2457 50.368C53.115 50.1067 53.0497 49.8453 53.0497 49.584C53.0497 49.1547 53.199 48.7813 53.4977 48.464C53.815 48.128 54.207 47.96 54.6737 47.96C55.0284 47.96 55.3457 48.072 55.6257 48.296C56.335 48.8747 57.035 49.3133 57.7257 49.612C58.435 49.9107 59.303 50.06 60.3297 50.06C61.0204 50.06 61.655 49.9573 62.2337 49.752C62.8124 49.528 63.279 49.2387 63.6337 48.884C63.9884 48.5107 64.1657 48.0907 64.1657 47.624C64.1657 47.064 63.9977 46.588 63.6617 46.196C63.3257 45.804 62.8124 45.4773 62.1217 45.216C61.431 44.936 60.5537 44.7213 59.4897 44.572C58.4817 44.4227 57.595 44.1987 56.8297 43.9C56.0644 43.5827 55.4204 43.1907 54.8977 42.724C54.3937 42.2387 54.011 41.6787 53.7497 41.044C53.4884 40.3907 53.3577 39.6627 53.3577 38.86C53.3577 37.6467 53.6657 36.6107 54.2817 35.752C54.9164 34.8933 55.7657 34.24 56.8297 33.792C57.8937 33.344 59.0697 33.12 60.3577 33.12C61.571 33.12 62.691 33.3067 63.7177 33.68C64.763 34.0347 65.6124 34.492 66.2657 35.052C66.807 35.4813 67.0777 35.976 67.0777 36.536C67.0777 36.9467 66.919 37.32 66.6017 37.656C66.2844 37.992 65.911 38.16 65.4817 38.16C65.2017 38.16 64.9497 38.076 64.7257 37.908C64.427 37.6467 64.0257 37.404 63.5217 37.18C63.0177 36.9373 62.4857 36.7413 61.9257 36.592C61.3657 36.424 60.843 36.34 60.3577 36.34C59.555 36.34 58.8737 36.4427 58.3137 36.648C57.7724 36.8533 57.3617 37.1333 57.0817 37.488C56.8017 37.8427 56.6617 38.2533 56.6617 38.72C56.6617 39.28 56.8204 39.7467 57.1377 40.12C57.4737 40.4747 57.9497 40.764 58.5657 40.988C59.1817 41.1933 59.919 41.38 60.7777 41.548C61.8977 41.7533 62.8777 41.996 63.7177 42.276C64.5764 42.556 65.2857 42.92 65.8457 43.368C66.4057 43.7973 66.8257 44.348 67.1057 45.02C67.3857 45.6733 67.5257 46.476 67.5257 47.428C67.5257 48.6413 67.1897 49.6867 66.5177 50.564C65.8457 51.4413 64.959 52.1133 63.8577 52.58C62.775 53.0467 61.599 53.28 60.3297 53.28Z" fill="white"/><defs><linearGradient id="paint0_linear_1812_30" x1="164.693" y1="-1.04528e-06" x2="89.6953" y2="86" gradientUnits="userSpaceOnUse"><stop offset="0.248268" stop-color="#0035E0"/><stop offset="0.85523" stop-color="#4C4C4C"/></linearGradient></defs></svg>